<mxfile host="app.diagrams.net" modified="2024-06-11T18:23:47.174Z" agent="Mozilla/5.0 (Windows NT 10.0; Win64; x64) AppleWebKit/537.36 (KHTML, like Gecko) Chrome/125.0.0.0 Safari/537.36" etag="XsZV9st6Zg0CBtbFWTVZ" version="24.5.3" type="device">
  <diagram name="Страница — 1" id="H8H_RaahBn_tZQkw9r-G">
    <mxGraphModel dx="2625" dy="1325" grid="1" gridSize="10" guides="1" tooltips="1" connect="1" arrows="1" fold="1" page="1" pageScale="1" pageWidth="827" pageHeight="1169" math="0" shadow="0">
      <root>
        <mxCell id="0" />
        <mxCell id="1" parent="0" />
        <mxCell id="kLguh2nxEDngK2DsZuyt-84" value="" style="rounded=0;whiteSpace=wrap;html=1;" vertex="1" parent="1">
          <mxGeometry x="10" y="20" width="1640" height="1120" as="geometry" />
        </mxCell>
        <mxCell id="kLguh2nxEDngK2DsZuyt-2" value="&lt;p style=&quot;margin:0px;margin-top:4px;text-align:center;&quot;&gt;&lt;i&gt;Клиент(профиль)&lt;/i&gt;&lt;/p&gt;&lt;hr size=&quot;1&quot; style=&quot;border-style:solid;&quot;&gt;&lt;p style=&quot;margin:0px;margin-left:4px;&quot;&gt;-Номер телефона: int&lt;br&gt;-Почта: string&lt;/p&gt;&lt;p style=&quot;margin:0px;margin-left:4px;&quot;&gt;+Имя: string&lt;/p&gt;&lt;p style=&quot;margin:0px;margin-left:4px;&quot;&gt;+Фамилия:&amp;nbsp;&lt;span style=&quot;background-color: initial;&quot;&gt;string&lt;/span&gt;&lt;/p&gt;&lt;hr size=&quot;1&quot; style=&quot;border-style:solid;&quot;&gt;&lt;p style=&quot;margin:0px;margin-left:4px;&quot;&gt;&lt;span style=&quot;text-wrap: nowrap;&quot;&gt;+ Registration(login: string,&lt;/span&gt;&lt;br style=&quot;padding: 0px; margin: 0px; text-wrap: nowrap;&quot;&gt;&lt;span style=&quot;text-wrap: nowrap;&quot;&gt;&amp;nbsp;password: string, e-mail: string)&amp;nbsp;&lt;/span&gt;&lt;br&gt;&lt;/p&gt;&lt;p style=&quot;margin:0px;margin-left:4px;&quot;&gt;&lt;span style=&quot;text-wrap: nowrap;&quot;&gt;+ ResetPassword(e-mail: string):&lt;/span&gt;&lt;br style=&quot;padding: 0px; margin: 0px; text-wrap: nowrap;&quot;&gt;&lt;span style=&quot;text-wrap: nowrap;&quot;&gt;&amp;nbsp;password&lt;/span&gt;&lt;span style=&quot;text-wrap: nowrap;&quot;&gt;&lt;br&gt;&lt;/span&gt;&lt;/p&gt;&lt;p style=&quot;margin:0px;margin-left:4px;&quot;&gt;&lt;span style=&quot;text-wrap: nowrap;&quot;&gt;+ LogInThroughWebInterface&lt;/span&gt;&lt;br style=&quot;padding: 0px; margin: 0px; text-wrap: nowrap;&quot;&gt;&lt;span style=&quot;text-wrap: nowrap;&quot;&gt;(login: string, password: string,&amp;nbsp;&lt;/span&gt;&lt;br style=&quot;padding: 0px; margin: 0px; text-wrap: nowrap;&quot;&gt;&lt;span style=&quot;text-wrap: nowrap;&quot;&gt;e-mail: string): void&lt;/span&gt;&lt;span style=&quot;text-wrap: nowrap;&quot;&gt;&lt;br&gt;&lt;/span&gt;&lt;/p&gt;&lt;p style=&quot;margin:0px;margin-left:4px;&quot;&gt;&lt;span style=&quot;text-wrap: nowrap;&quot;&gt;+ LogOut(): void&amp;nbsp;&lt;/span&gt;&lt;span style=&quot;text-wrap: nowrap;&quot;&gt;&lt;br&gt;&lt;/span&gt;&lt;/p&gt;&lt;p style=&quot;margin:0px;margin-left:4px;&quot;&gt;&lt;span style=&quot;text-wrap: nowrap;&quot;&gt;+ SignUpThroughWebInterface&lt;/span&gt;&lt;br style=&quot;padding: 0px; margin: 0px; text-wrap: nowrap;&quot;&gt;&lt;span style=&quot;text-wrap: nowrap;&quot;&gt;(login: string, password: string,&amp;nbsp;&lt;/span&gt;&lt;br style=&quot;padding: 0px; margin: 0px; text-wrap: nowrap;&quot;&gt;&lt;span style=&quot;text-wrap: nowrap;&quot;&gt;e-mail: string): void&lt;/span&gt;&lt;span style=&quot;text-wrap: nowrap;&quot;&gt;&lt;br&gt;&lt;/span&gt;&lt;/p&gt;&lt;p style=&quot;margin:0px;margin-left:4px;&quot;&gt;&lt;span style=&quot;text-wrap: nowrap;&quot;&gt;+ ContactTechnicalSupport&lt;/span&gt;&lt;span style=&quot;text-wrap: nowrap;&quot;&gt;&lt;br&gt;&lt;/span&gt;&lt;/p&gt;" style="verticalAlign=top;align=left;overflow=fill;html=1;whiteSpace=wrap;" vertex="1" parent="1">
          <mxGeometry x="80" y="110" width="190" height="290" as="geometry" />
        </mxCell>
        <mxCell id="kLguh2nxEDngK2DsZuyt-3" value="&lt;p style=&quot;margin:0px;margin-top:4px;text-align:center;&quot;&gt;&lt;i&gt;Техподдержка&lt;/i&gt;&lt;/p&gt;&lt;hr size=&quot;1&quot; style=&quot;border-style:solid;&quot;&gt;&lt;p style=&quot;margin:0px;margin-left:4px;&quot;&gt;ФИО: string&lt;/p&gt;&lt;p style=&quot;margin:0px;margin-left:4px;&quot;&gt;Почта: string&lt;/p&gt;&lt;p style=&quot;margin:0px;margin-left:4px;&quot;&gt;Номер телефона: string&lt;/p&gt;&lt;hr size=&quot;1&quot; style=&quot;border-style:solid;&quot;&gt;&lt;pre style=&quot;font-variant-numeric: normal; font-variant-east-asian: normal; font-variant-alternates: normal; font-variant-position: normal; box-sizing: border-box; font-kerning: auto; font-optical-sizing: auto; font-feature-settings: normal; font-variation-settings: normal; font-stretch: normal; font-size: 0.875rem; line-height: 1.25; margin-top: 0px; margin-bottom: 0px; overflow: hidden; --color-scrollbar: var(--color-scrollbar-code); text-wrap: wrap; --color-type: #0053d4; --color-keyword: #388e22; --color-class: #3e6c20; --color-string: #9a1111; --color-template: #9A5334; --color-selector: #9A5334; --color-function: #a753b7; --color-comment: #616161; --color-section: #9a1111; --color-variable: #BD63C5; --color-attribute: #276b8f; --color-link: #276b8f; --color-tag: #000000;&quot; data-language=&quot;&quot; data-entity-type=&quot;MessageEntityPre&quot; class=&quot;code-block&quot;&gt;&lt;font face=&quot;Times New Roman&quot;&gt;+ ResolveProblem(Issue): bool&lt;/font&gt;&lt;/pre&gt;&lt;pre style=&quot;font-variant-numeric: normal; font-variant-east-asian: normal; font-variant-alternates: normal; font-variant-position: normal; box-sizing: border-box; font-kerning: auto; font-optical-sizing: auto; font-feature-settings: normal; font-variation-settings: normal; font-stretch: normal; font-size: 0.875rem; line-height: 1.25; margin-top: 0px; margin-bottom: 0px; overflow: hidden; --color-scrollbar: var(--color-scrollbar-code); text-wrap: wrap; --color-type: #0053d4; --color-keyword: #388e22; --color-class: #3e6c20; --color-string: #9a1111; --color-template: #9A5334; --color-selector: #9A5334; --color-function: #a753b7; --color-comment: #616161; --color-section: #9a1111; --color-variable: #BD63C5; --color-attribute: #276b8f; --color-link: #276b8f; --color-tag: #000000;&quot; data-language=&quot;&quot; data-entity-type=&quot;MessageEntityPre&quot; class=&quot;code-block&quot;&gt;&lt;font face=&quot;YmGQIqssShiQCRsfejVY&quot;&gt;+ BlockUser() &lt;/font&gt;&lt;/pre&gt;" style="verticalAlign=top;align=left;overflow=fill;html=1;whiteSpace=wrap;" vertex="1" parent="1">
          <mxGeometry x="680" y="180" width="190" height="140" as="geometry" />
        </mxCell>
        <mxCell id="kLguh2nxEDngK2DsZuyt-4" value="&lt;p style=&quot;margin:0px;margin-top:4px;text-align:center;&quot;&gt;&lt;i&gt;клиент(акк)&lt;/i&gt;&lt;/p&gt;&lt;hr size=&quot;1&quot; style=&quot;border-style:solid;&quot;&gt;&lt;p style=&quot;margin:0px;margin-left:4px;&quot;&gt;+ФИО: string&lt;/p&gt;&lt;p style=&quot;margin:0px;margin-left:4px;&quot;&gt;-email; string&lt;/p&gt;&lt;hr size=&quot;1&quot; style=&quot;border-style:solid;&quot;&gt;&lt;p style=&quot;margin:0px;margin-left:4px;&quot;&gt;&lt;span style=&quot;text-wrap: nowrap;&quot;&gt;+ ChangeDetails(): void&lt;/span&gt;&lt;br&gt;&lt;/p&gt;" style="verticalAlign=top;align=left;overflow=fill;html=1;whiteSpace=wrap;" vertex="1" parent="1">
          <mxGeometry x="390" y="210" width="190" height="90" as="geometry" />
        </mxCell>
        <mxCell id="kLguh2nxEDngK2DsZuyt-7" value="has" style="endArrow=block;endFill=1;html=1;edgeStyle=orthogonalEdgeStyle;align=left;verticalAlign=top;rounded=0;exitX=1;exitY=0.5;exitDx=0;exitDy=0;entryX=0;entryY=0.5;entryDx=0;entryDy=0;" edge="1" parent="1" source="kLguh2nxEDngK2DsZuyt-2" target="kLguh2nxEDngK2DsZuyt-4">
          <mxGeometry x="-1" relative="1" as="geometry">
            <mxPoint x="330" y="320" as="sourcePoint" />
            <mxPoint x="490" y="320" as="targetPoint" />
          </mxGeometry>
        </mxCell>
        <mxCell id="kLguh2nxEDngK2DsZuyt-8" value="1" style="edgeLabel;resizable=0;html=1;align=left;verticalAlign=bottom;" connectable="0" vertex="1" parent="kLguh2nxEDngK2DsZuyt-7">
          <mxGeometry x="-1" relative="1" as="geometry" />
        </mxCell>
        <mxCell id="kLguh2nxEDngK2DsZuyt-14" style="edgeStyle=orthogonalEdgeStyle;rounded=0;orthogonalLoop=1;jettySize=auto;html=1;exitX=0.5;exitY=1;exitDx=0;exitDy=0;" edge="1" parent="1" source="kLguh2nxEDngK2DsZuyt-9" target="kLguh2nxEDngK2DsZuyt-13">
          <mxGeometry relative="1" as="geometry" />
        </mxCell>
        <mxCell id="kLguh2nxEDngK2DsZuyt-9" value="&lt;p style=&quot;margin:0px;margin-top:4px;text-align:center;&quot;&gt;&lt;i&gt;Покупка&lt;/i&gt;&lt;/p&gt;&lt;hr size=&quot;1&quot; style=&quot;border-style:solid;&quot;&gt;&lt;p style=&quot;margin:0px;margin-left:4px;&quot;&gt;Статус: string&lt;/p&gt;&lt;p style=&quot;margin:0px;margin-left:4px;&quot;&gt;Дата: datetime&lt;/p&gt;&lt;p style=&quot;margin:0px;margin-left:4px;&quot;&gt;Оплата: string&lt;/p&gt;&lt;hr size=&quot;1&quot; style=&quot;border-style:solid;&quot;&gt;&lt;pre style=&quot;font-variant-numeric: normal; font-variant-east-asian: normal; font-variant-alternates: normal; font-variant-position: normal; box-sizing: border-box; font-kerning: auto; font-optical-sizing: auto; font-feature-settings: normal; font-variation-settings: normal; font-stretch: normal; line-height: 1.25; font-family: var(--font-family-monospace); margin-top: 0px; margin-bottom: 0px; overflow: hidden; --color-scrollbar: var(--color-scrollbar-code); text-wrap: wrap; --color-type: #0053d4; --color-keyword: #388e22; --color-class: #3e6c20; --color-string: #9a1111; --color-template: #9A5334; --color-selector: #9A5334; --color-function: #a753b7; --color-comment: #616161; --color-section: #9a1111; --color-variable: #BD63C5; --color-attribute: #276b8f; --color-link: #276b8f; --color-tag: #000000;&quot; data-language=&quot;&quot; data-entity-type=&quot;MessageEntityPre&quot; class=&quot;code-block&quot;&gt;+ completePurchase(): bool&lt;/pre&gt;&lt;pre style=&quot;font-variant-numeric: normal; font-variant-east-asian: normal; font-variant-alternates: normal; font-variant-position: normal; box-sizing: border-box; font-kerning: auto; font-optical-sizing: auto; font-feature-settings: normal; font-variation-settings: normal; font-stretch: normal; line-height: 1.25; font-family: var(--font-family-monospace); margin-top: 0px; margin-bottom: 0px; overflow: hidden; --color-scrollbar: var(--color-scrollbar-code); text-wrap: wrap; --color-type: #0053d4; --color-keyword: #388e22; --color-class: #3e6c20; --color-string: #9a1111; --color-template: #9A5334; --color-selector: #9A5334; --color-function: #a753b7; --color-comment: #616161; --color-section: #9a1111; --color-variable: #BD63C5; --color-attribute: #276b8f; --color-link: #276b8f; --color-tag: #000000;&quot; data-language=&quot;&quot; data-entity-type=&quot;MessageEntityPre&quot; class=&quot;code-block&quot;&gt;+ cancelPurchase(): bool&lt;/pre&gt;" style="verticalAlign=top;align=left;overflow=fill;html=1;whiteSpace=wrap;" vertex="1" parent="1">
          <mxGeometry x="390" y="360" width="190" height="140" as="geometry" />
        </mxCell>
        <mxCell id="kLguh2nxEDngK2DsZuyt-10" value="Extends" style="endArrow=block;endSize=16;endFill=0;html=1;rounded=0;entryX=1;entryY=0.25;entryDx=0;entryDy=0;exitX=0;exitY=0;exitDx=0;exitDy=0;" edge="1" parent="1" source="kLguh2nxEDngK2DsZuyt-3" target="kLguh2nxEDngK2DsZuyt-2">
          <mxGeometry width="160" relative="1" as="geometry">
            <mxPoint x="450" y="140" as="sourcePoint" />
            <mxPoint x="610" y="140" as="targetPoint" />
          </mxGeometry>
        </mxCell>
        <mxCell id="kLguh2nxEDngK2DsZuyt-11" value="&lt;p style=&quot;margin:0px;margin-top:4px;text-align:center;&quot;&gt;&lt;i&gt;Скрытая инфа о клиенте&lt;/i&gt;&lt;/p&gt;&lt;hr size=&quot;1&quot; style=&quot;border-style:solid;&quot;&gt;&lt;p style=&quot;margin:0px;margin-left:4px;&quot;&gt;-Номер телефона:int&lt;/p&gt;&lt;p style=&quot;margin:0px;margin-left:4px;&quot;&gt;-Номер карты&lt;span style=&quot;background-color: initial;&quot;&gt;:int&lt;/span&gt;&lt;/p&gt;&lt;p style=&quot;margin:0px;margin-left:4px;&quot;&gt;-Баланс&lt;span style=&quot;background-color: initial;&quot;&gt;:int&lt;/span&gt;&lt;/p&gt;&lt;p style=&quot;margin:0px;margin-left:4px;&quot;&gt;-Оплата&lt;span style=&quot;background-color: initial;&quot;&gt;:string&lt;/span&gt;&lt;/p&gt;&lt;hr size=&quot;1&quot; style=&quot;border-style:solid;&quot;&gt;&lt;p style=&quot;margin:0px;margin-left:4px;&quot;&gt;&lt;span style=&quot;text-wrap: nowrap;&quot;&gt;+ MakePurchase(): void&lt;/span&gt;&lt;br&gt;&lt;/p&gt;&lt;p style=&quot;margin:0px;margin-left:4px;&quot;&gt;&lt;span style=&quot;text-wrap: nowrap;&quot;&gt;+ Cancel(): void&lt;/span&gt;&lt;span style=&quot;text-wrap: nowrap;&quot;&gt;&lt;br&gt;&lt;/span&gt;&lt;/p&gt;&lt;p style=&quot;margin:0px;margin-left:4px;&quot;&gt;&lt;span style=&quot;text-wrap: nowrap;&quot;&gt;- GetACheck(): void&lt;/span&gt;&lt;span style=&quot;text-wrap: nowrap;&quot;&gt;&lt;br&gt;&lt;/span&gt;&lt;/p&gt;" style="verticalAlign=top;align=left;overflow=fill;html=1;whiteSpace=wrap;" vertex="1" parent="1">
          <mxGeometry x="80" y="520" width="190" height="150" as="geometry" />
        </mxCell>
        <mxCell id="kLguh2nxEDngK2DsZuyt-12" value="Extends" style="endArrow=block;endSize=16;endFill=0;html=1;rounded=0;exitX=0.5;exitY=0;exitDx=0;exitDy=0;entryX=0.5;entryY=1;entryDx=0;entryDy=0;" edge="1" parent="1" source="kLguh2nxEDngK2DsZuyt-11" target="kLguh2nxEDngK2DsZuyt-2">
          <mxGeometry width="160" relative="1" as="geometry">
            <mxPoint x="510" y="500" as="sourcePoint" />
            <mxPoint x="670" y="500" as="targetPoint" />
          </mxGeometry>
        </mxCell>
        <mxCell id="kLguh2nxEDngK2DsZuyt-13" value="&lt;p style=&quot;margin:0px;margin-top:4px;text-align:center;&quot;&gt;&lt;i&gt;Оплата&lt;/i&gt;&lt;/p&gt;&lt;hr size=&quot;1&quot; style=&quot;border-style:solid;&quot;&gt;&lt;p style=&quot;margin:0px;margin-left:4px;&quot;&gt;+ Сумма:int&lt;/p&gt;&lt;p style=&quot;margin:0px;margin-left:4px;&quot;&gt;- memo id:int&lt;/p&gt;&lt;hr size=&quot;1&quot; style=&quot;border-style:solid;&quot;&gt;&lt;p style=&quot;margin:0px;margin-left:4px;&quot;&gt;+ RefundPayment(): bool&lt;br&gt;&lt;/p&gt;&lt;p style=&quot;margin:0px;margin-left:4px;&quot;&gt;+ CapturePayment(): bool&amp;nbsp;&lt;br&gt;&lt;/p&gt;" style="verticalAlign=top;align=left;overflow=fill;html=1;whiteSpace=wrap;" vertex="1" parent="1">
          <mxGeometry x="390" y="580" width="190" height="140" as="geometry" />
        </mxCell>
        <mxCell id="kLguh2nxEDngK2DsZuyt-18" value="0..." style="endArrow=block;endFill=1;html=1;edgeStyle=orthogonalEdgeStyle;align=left;verticalAlign=top;rounded=0;exitX=0.75;exitY=0;exitDx=0;exitDy=0;entryX=0;entryY=0.5;entryDx=0;entryDy=0;" edge="1" parent="1" source="kLguh2nxEDngK2DsZuyt-11" target="kLguh2nxEDngK2DsZuyt-9">
          <mxGeometry x="0.8447" relative="1" as="geometry">
            <mxPoint x="510" y="410" as="sourcePoint" />
            <mxPoint x="670" y="410" as="targetPoint" />
            <mxPoint as="offset" />
          </mxGeometry>
        </mxCell>
        <mxCell id="kLguh2nxEDngK2DsZuyt-19" value="0" style="edgeLabel;resizable=0;html=1;align=left;verticalAlign=bottom;" connectable="0" vertex="1" parent="kLguh2nxEDngK2DsZuyt-18">
          <mxGeometry x="-1" relative="1" as="geometry" />
        </mxCell>
        <mxCell id="kLguh2nxEDngK2DsZuyt-20" value="&lt;p style=&quot;margin:0px;margin-top:4px;text-align:center;&quot;&gt;&lt;i&gt;Оплата картой&lt;/i&gt;&lt;/p&gt;&lt;hr size=&quot;1&quot; style=&quot;border-style:solid;&quot;&gt;&lt;p style=&quot;margin: 0px 0px 0px 4px;&quot;&gt;- Номер: int&lt;/p&gt;&lt;p style=&quot;margin: 0px 0px 0px 4px;&quot;&gt;&lt;span style=&quot;background-color: initial;&quot;&gt;- Type: string&lt;/span&gt;&lt;/p&gt;&lt;p style=&quot;margin: 0px 0px 0px 4px;&quot;&gt;&lt;span style=&quot;background-color: initial;&quot;&gt;- ExpDate: string&lt;/span&gt;&lt;/p&gt;&lt;hr size=&quot;1&quot; style=&quot;border-style:solid;&quot;&gt;&lt;p style=&quot;margin:0px;margin-left:4px;&quot;&gt;&lt;span style=&quot;background-color: initial; text-wrap: nowrap; color: rgba(0, 0, 0, 0); font-family: monospace; font-size: 0px;&quot;&gt;%3CmxGraphModel%3E%3Croot%3E%3CmxCell%20id%3D%220%22%2F%3E%3CmxCell%20id%3D%221%22%20parent%3D%220%22%2F%3E%3CmxCell%20id%3D%222%22%20value%3D%22-%20Number%3A%20int%26lt%3Bspan%20style%3D%26quot%3Bcolor%3A%20rgba(0%2C%200%2C%200%2C%200)%3B%20font-family%3A%20monospace%3B%20font-size%3A%200px%3B%20text-wrap%3A%20nowrap%3B%26quot%3B%26gt%3B%253CmxGraphModel%253E%253Croot%253E%253CmxCell%2520id%253D%25220%2522%252F%253E%253CmxCell%2520id%253D%25221%2522%2520parent%253D%25220%2522%252F%253E%253CmxCell%2520id%253D%25222%2522%2520value%253D%2522Payment%2522%2520style%253D%2522swimlane%253BfontStyle%253D0%253Balign%253Dcenter%253BverticalAlign%253Dtop%253BchildLayout%253DstackLayout%253Bhorizontal%253D1%253BstartSize%253D20%253BhorizontalStack%253D0%253BresizeParent%253D1%253BresizeLast%253D0%253Bcollapsible%253D1%253BmarginBottom%253D0%253Brounded%253D0%253Bshadow%253D0%253BstrokeWidth%253D1%253B%2522%2520vertex%253D%25221%2522%2520parent%253D%25221%2522%253E%253CmxGeometry%2520x%253D%2522348%2522%2520y%253D%2522850%2522%2520width%253D%2522160%2522%2520height%253D%252280%2522%2520as%253D%2522geometry%2522%253E%253CmxRectangle%2520x%253D%2522340%2522%2520y%253D%2522380%2522%2520width%253D%2522170%2522%2520height%253D%252226%2522%2520as%253D%2522alternateBounds%2522%252F%253E%253C%252FmxGeometry%253E%253C%252FmxCell%253E%253CmxCell%2520id%253D%25223%2522%2520value%253D%2522%252B%2520Amount%253A%2520in%2522%2520style%253D%2522text%253BstrokeColor%253Dnone%253BfillColor%253Dnone%253Balign%253Dleft%253BverticalAlign%253Dtop%253BspacingLeft%253D4%253BspacingRight%253D4%253Boverflow%253Dhidden%253Brotatable%253D0%253Bpoints%253D%255B%255B0%252C0.5%255D%252C%255B1%252C0.5%255D%255D%253BportConstraint%253Deastwest%253BwhiteSpace%253Dwrap%253Bhtml%253D1%253B%2522%2520vertex%253D%25221%2522%2520parent%253D%25222%2522%253E%253CmxGeometry%2520y%253D%252220%2522%2520width%253D%2522160%2522%2520height%253D%252226%2522%2520as%253D%2522geometry%2522%252F%253E%253C%252FmxCell%253E%253CmxCell%2520id%253D%25224%2522%2520value%253D%2522%2522%2520style%253D%2522line%253Bhtml%253D1%253BstrokeWidth%253D1%253Balign%253Dleft%253BverticalAlign%253Dmiddle%253BspacingTop%253D-1%253BspacingLeft%253D3%253BspacingRight%253D3%253Brotatable%253D0%253BlabelPosition%253Dright%253Bpoints%253D%255B%255D%253BportConstraint%253Deastwest%253B%2522%2520vertex%253D%25221%2522%2520parent%253D%25222%2522%253E%253CmxGeometry%2520y%253D%252246%2522%2520width%253D%2522160%2522%2520height%253D%25228%2522%2520as%253D%2522geometry%2522%252F%253E%253C%252FmxCell%253E%253CmxCell%2520id%253D%25225%2522%2520value%253D%2522%252B%2520MakeAPayment()%253A%2520void%2522%2520style%253D%2522text%253BstrokeColor%253Dnone%253BfillColor%253Dnone%253Balign%253Dleft%253BverticalAlign%253Dtop%253BspacingLeft%253D4%253BspacingRight%253D4%253Boverflow%253Dhidden%253Brotatable%253D0%253Bpoints%253D%255B%255B0%252C0.5%255D%252C%255B1%252C0.5%255D%255D%253BportConstraint%253Deastwest%253BwhiteSpace%253Dwrap%253Bhtml%253D1%253B%2522%2520vertex%253D%25221%2522%2520parent%253D%25222%2522%253E%253CmxGeometry%2520y%253D%252254%2522%2520width%253D%2522160%2522%2520height%253D%252226%2522%2520as%253D%2522geometry%2522%252F%253E%253C%252FmxCell%253E%253C%252Froot%253E%253C%252FmxGraphModel%253E%26lt%3B%2Fspan%26gt%3B%22%20style%3D%22text%3BstrokeColor%3Dnone%3BfillColor%3Dnone%3Balign%3Dleft%3BverticalAlign%3Dtop%3BspacingLeft%3D4%3BspacingRight%3D4%3Boverflow%3Dhidden%3Brotatable%3D0%3Bpoints%3D%5B%5B0%2C0.5%5D%2C%5B1%2C0.5%5D%5D%3BportConstraint%3Deastwest%3BwhiteSpace%3Dwrap%3Bhtml%3D1%3B%22%20vertex%3D%221%22%20parent%3D%221%22%3E%3CmxGeometry%20x%3D%22358%22%20y%3D%221010%22%20width%3D%22160%22%20height%3D%2226%22%20as%3D%22geometry%22%2F%3E%3C%2FmxCell%3E%3C%2Froot%3E%3C%2FmxGraphModel%3E&lt;/span&gt;&lt;span style=&quot;background-color: initial;&quot;&gt;+ Confirm(): void&lt;/span&gt;&lt;span style=&quot;background-color: initial; color: rgba(0, 0, 0, 0); font-family: monospace; font-size: 0px; text-wrap: nowrap;&quot;&gt;%3CmxGraphModel%3E%3Croot%3E%3CmxCell%20id%3D%220%22%2F%3E%3CmxCell%20id%3D%221%22%20parent%3D%220%22%2F%3E%3CmxCell%20id%3D%222%22%20value%3D%22Payment%22%20style%3D%22swimlane%3BfontStyle%3D0%3Balign%3Dcenter%3BverticalAlign%3Dtop%3BchildLayout%3DstackLayout%3Bhorizontal%3D1%3BstartSize%3D20%3BhorizontalStack%3D0%3BresizeParent%3D1%3BresizeLast%3D0%3Bcollapsible%3D1%3BmarginBottom%3D0%3Brounded%3D0%3Bshadow%3D0%3BstrokeWidth%3D1%3B%22%20vertex%3D%221%22%20parent%3D%221%22%3E%3CmxGeometry%20x%3D%22348%22%20y%3D%22850%22%20width%3D%22160%22%20height%3D%2280%22%20as%3D%22geometry%22%3E%3CmxRectangle%20x%3D%22340%22%20y%3D%22380%22%20width%3D%22170%22%20height%3D%2226%22%20as%3D%22alternateBounds%22%2F%3E%3C%2FmxGeometry%3E%3C%2FmxCell%3E%3CmxCell%20id%3D%223%22%20value%3D%22%2B%20Amount%3A%20in%22%20style%3D%22text%3BstrokeColor%3Dnone%3BfillColor%3Dnone%3Balign%3Dleft%3BverticalAlign%3Dtop%3BspacingLeft%3D4%3BspacingRight%3D4%3Boverflow%3Dhidden%3Brotatable%3D0%3Bpoints%3D%5B%5B0%2C0.5%5D%2C%5B1%2C0.5%5D%5D%3BportConstraint%3Deastwest%3BwhiteSpace%3Dwrap%3Bhtml%3D1%3B%22%20vertex%3D%221%22%20parent%3D%222%22%3E%3CmxGeometry%20y%3D%2220%22%20width%3D%22160%22%20height%3D%2226%22%20as%3D%22geometry%22%2F%3E%3C%2FmxCell%3E%3CmxCell%20id%3D%224%22%20value%3D%22%22%20style%3D%22line%3Bhtml%3D1%3BstrokeWidth%3D1%3Balign%3Dleft%3BverticalAlign%3Dmiddle%3BspacingTop%3D-1%3BspacingLeft%3D3%3BspacingRight%3D3%3Brotatable%3D0%3BlabelPosition%3Dright%3Bpoints%3D%5B%5D%3BportConstraint%3Deastwest%3B%22%20vertex%3D%221%22%20parent%3D%222%22%3E%3CmxGeometry%20y%3D%2246%22%20width%3D%22160%22%20height%3D%228%22%20as%3D%22geometry%22%2F%3E%3C%2FmxCell%3E%3CmxCell%20id%3D%225%22%20value%3D%22%2B%20MakeAPayment()%3A%20void%22%20style%3D%22text%3BstrokeColor%3Dnone%3BfillColor%3Dnone%3Balign%3Dleft%3BverticalAlign%3Dtop%3BspacingLeft%3D4%3BspacingRight%3D4%3Boverflow%3Dhidden%3Brotatable%3D0%3Bpoints%3D%5B%5B0%2C0.5%5D%2C%5B1%2C0.5%5D%5D%3BportConstraint%3Deastwest%3BwhiteSpace%3Dwrap%3Bhtml%3D1%3B%22%20vertex%3D%221%22%20parent%3D%222%22%3E%3CmxGeometry%20y%3D%2254%22%20width%3D%22160%22%20height%3D%2226%22%20as%3D%22geometry%22%2F%3E%3C%2FmxCell%3E%3C%2Froot%3E%3C%2FmxGraphModel%3E&lt;/span&gt;&lt;/p&gt;" style="verticalAlign=top;align=left;overflow=fill;html=1;whiteSpace=wrap;" vertex="1" parent="1">
          <mxGeometry x="390" y="800" width="190" height="140" as="geometry" />
        </mxCell>
        <mxCell id="kLguh2nxEDngK2DsZuyt-22" value="Extends" style="endArrow=block;endSize=16;endFill=0;html=1;rounded=0;exitX=0.5;exitY=0;exitDx=0;exitDy=0;entryX=0.5;entryY=1;entryDx=0;entryDy=0;" edge="1" parent="1" source="kLguh2nxEDngK2DsZuyt-20" target="kLguh2nxEDngK2DsZuyt-13">
          <mxGeometry width="160" relative="1" as="geometry">
            <mxPoint x="510" y="730" as="sourcePoint" />
            <mxPoint x="670" y="730" as="targetPoint" />
          </mxGeometry>
        </mxCell>
        <mxCell id="kLguh2nxEDngK2DsZuyt-23" value="&lt;span style=&quot;font-weight: normal;&quot;&gt;Проблема/жалоба&lt;/span&gt;" style="swimlane;fontStyle=1;align=center;verticalAlign=top;childLayout=stackLayout;horizontal=1;startSize=26;horizontalStack=0;resizeParent=1;resizeParentMax=0;resizeLast=0;collapsible=1;marginBottom=0;whiteSpace=wrap;html=1;" vertex="1" parent="1">
          <mxGeometry x="1030" y="180" width="290" height="216" as="geometry" />
        </mxCell>
        <mxCell id="kLguh2nxEDngK2DsZuyt-24" value="&lt;pre style=&quot;box-sizing: border-box; font-variant-numeric: normal; font-variant-east-asian: normal; font-variant-alternates: normal; font-variant-position: normal; font-kerning: auto; font-optical-sizing: auto; font-feature-settings: normal; font-variation-settings: normal; font-stretch: normal; line-height: 1.25; font-family: var(--font-family-monospace); margin-top: 0px; margin-bottom: 0px; overflow: hidden; --color-scrollbar: var(--color-scrollbar-code); text-wrap: wrap; --color-type: #0053d4; --color-keyword: #388e22; --color-class: #3e6c20; --color-string: #9a1111; --color-template: #9A5334; --color-selector: #9A5334; --color-function: #a753b7; --color-comment: #616161; --color-section: #9a1111; --color-variable: #BD63C5; --color-attribute: #276b8f; --color-link: #276b8f; --color-tag: #000000;&quot; data-language=&quot;&quot; data-entity-type=&quot;MessageEntityPre&quot; class=&quot;code-block&quot;&gt;&lt;font style=&quot;font-size: 12px;&quot;&gt;- IssueId: int&lt;/font&gt;&lt;/pre&gt;" style="text;strokeColor=none;fillColor=none;align=left;verticalAlign=top;spacingLeft=4;spacingRight=4;overflow=hidden;rotatable=0;points=[[0,0.5],[1,0.5]];portConstraint=eastwest;whiteSpace=wrap;html=1;" vertex="1" parent="kLguh2nxEDngK2DsZuyt-23">
          <mxGeometry y="26" width="290" height="26" as="geometry" />
        </mxCell>
        <mxCell id="kLguh2nxEDngK2DsZuyt-25" value="&lt;pre style=&quot;box-sizing: border-box; font-variant-numeric: normal; font-variant-east-asian: normal; font-variant-alternates: normal; font-variant-position: normal; font-kerning: auto; font-optical-sizing: auto; font-feature-settings: normal; font-variation-settings: normal; font-stretch: normal; line-height: 1.25; font-family: var(--font-family-monospace); margin-top: 0px; margin-bottom: 0px; overflow: hidden; --color-scrollbar: var(--color-scrollbar-code); text-wrap: wrap; --color-type: #0053d4; --color-keyword: #388e22; --color-class: #3e6c20; --color-string: #9a1111; --color-template: #9A5334; --color-selector: #9A5334; --color-function: #a753b7; --color-comment: #616161; --color-section: #9a1111; --color-variable: #BD63C5; --color-attribute: #276b8f; --color-link: #276b8f; --color-tag: #000000;&quot; data-language=&quot;&quot; data-entity-type=&quot;MessageEntityPre&quot; class=&quot;code-block&quot;&gt;&lt;pre style=&quot;box-sizing: border-box; font-variant-numeric: normal; font-variant-east-asian: normal; font-variant-alternates: normal; font-variant-position: normal; font-kerning: auto; font-optical-sizing: auto; font-feature-settings: normal; font-variation-settings: normal; font-stretch: normal; line-height: 1.25; font-family: var(--font-family-monospace); margin-top: 0px; margin-bottom: 0px; overflow: hidden; --color-scrollbar: var(--color-scrollbar-code); text-wrap: wrap; --color-type: #0053d4; --color-keyword: #388e22; --color-class: #3e6c20; --color-string: #9a1111; --color-template: #9A5334; --color-selector: #9A5334; --color-function: #a753b7; --color-comment: #616161; --color-section: #9a1111; --color-variable: #BD63C5; --color-attribute: #276b8f; --color-link: #276b8f; --color-tag: #000000;&quot; data-language=&quot;&quot; data-entity-type=&quot;MessageEntityPre&quot; class=&quot;code-block&quot;&gt;&lt;font style=&quot;font-size: 12px;&quot;&gt;- Description: string&lt;/font&gt;&lt;/pre&gt;&lt;/pre&gt;" style="text;strokeColor=none;fillColor=none;align=left;verticalAlign=top;spacingLeft=4;spacingRight=4;overflow=hidden;rotatable=0;points=[[0,0.5],[1,0.5]];portConstraint=eastwest;whiteSpace=wrap;html=1;" vertex="1" parent="kLguh2nxEDngK2DsZuyt-23">
          <mxGeometry y="52" width="290" height="26" as="geometry" />
        </mxCell>
        <mxCell id="kLguh2nxEDngK2DsZuyt-26" value="&lt;pre style=&quot;box-sizing: border-box; font-variant-numeric: normal; font-variant-east-asian: normal; font-variant-alternates: normal; font-variant-position: normal; font-kerning: auto; font-optical-sizing: auto; font-feature-settings: normal; font-variation-settings: normal; font-stretch: normal; line-height: 1.25; font-family: var(--font-family-monospace); margin-top: 0px; margin-bottom: 0px; overflow: hidden; --color-scrollbar: var(--color-scrollbar-code); text-wrap: wrap; --color-type: #0053d4; --color-keyword: #388e22; --color-class: #3e6c20; --color-string: #9a1111; --color-template: #9A5334; --color-selector: #9A5334; --color-function: #a753b7; --color-comment: #616161; --color-section: #9a1111; --color-variable: #BD63C5; --color-attribute: #276b8f; --color-link: #276b8f; --color-tag: #000000;&quot; data-language=&quot;&quot; data-entity-type=&quot;MessageEntityPre&quot; class=&quot;code-block&quot;&gt;&lt;pre style=&quot;box-sizing: border-box; font-variant-numeric: normal; font-variant-east-asian: normal; font-variant-alternates: normal; font-variant-position: normal; font-kerning: auto; font-optical-sizing: auto; font-feature-settings: normal; font-variation-settings: normal; font-stretch: normal; line-height: 1.25; font-family: var(--font-family-monospace); margin-top: 0px; margin-bottom: 0px; overflow: hidden; --color-scrollbar: var(--color-scrollbar-code); text-wrap: wrap; --color-type: #0053d4; --color-keyword: #388e22; --color-class: #3e6c20; --color-string: #9a1111; --color-template: #9A5334; --color-selector: #9A5334; --color-function: #a753b7; --color-comment: #616161; --color-section: #9a1111; --color-variable: #BD63C5; --color-attribute: #276b8f; --color-link: #276b8f; --color-tag: #000000;&quot; data-language=&quot;&quot; data-entity-type=&quot;MessageEntityPre&quot; class=&quot;code-block&quot;&gt;&lt;font style=&quot;font-size: 12px;&quot;&gt;- Severity: string&lt;/font&gt;&lt;/pre&gt;&lt;/pre&gt;" style="text;strokeColor=none;fillColor=none;align=left;verticalAlign=top;spacingLeft=4;spacingRight=4;overflow=hidden;rotatable=0;points=[[0,0.5],[1,0.5]];portConstraint=eastwest;whiteSpace=wrap;html=1;" vertex="1" parent="kLguh2nxEDngK2DsZuyt-23">
          <mxGeometry y="78" width="290" height="26" as="geometry" />
        </mxCell>
        <mxCell id="kLguh2nxEDngK2DsZuyt-27" value="&lt;pre style=&quot;box-sizing: border-box; font-variant-numeric: normal; font-variant-east-asian: normal; font-variant-alternates: normal; font-variant-position: normal; font-kerning: auto; font-optical-sizing: auto; font-feature-settings: normal; font-variation-settings: normal; font-stretch: normal; line-height: 1.25; font-family: var(--font-family-monospace); margin-top: 0px; margin-bottom: 0px; overflow: hidden; --color-scrollbar: var(--color-scrollbar-code); text-wrap: wrap; --color-type: #0053d4; --color-keyword: #388e22; --color-class: #3e6c20; --color-string: #9a1111; --color-template: #9A5334; --color-selector: #9A5334; --color-function: #a753b7; --color-comment: #616161; --color-section: #9a1111; --color-variable: #BD63C5; --color-attribute: #276b8f; --color-link: #276b8f; --color-tag: #000000;&quot; data-language=&quot;&quot; data-entity-type=&quot;MessageEntityPre&quot; class=&quot;code-block&quot;&gt;&lt;pre style=&quot;box-sizing: border-box; font-variant-numeric: normal; font-variant-east-asian: normal; font-variant-alternates: normal; font-variant-position: normal; font-kerning: auto; font-optical-sizing: auto; font-feature-settings: normal; font-variation-settings: normal; font-stretch: normal; line-height: 1.25; font-family: var(--font-family-monospace); margin-top: 0px; margin-bottom: 0px; overflow: hidden; --color-scrollbar: var(--color-scrollbar-code); text-wrap: wrap; --color-type: #0053d4; --color-keyword: #388e22; --color-class: #3e6c20; --color-string: #9a1111; --color-template: #9A5334; --color-selector: #9A5334; --color-function: #a753b7; --color-comment: #616161; --color-section: #9a1111; --color-variable: #BD63C5; --color-attribute: #276b8f; --color-link: #276b8f; --color-tag: #000000;&quot; data-language=&quot;&quot; data-entity-type=&quot;MessageEntityPre&quot; class=&quot;code-block&quot;&gt;&lt;font style=&quot;font-size: 12px;&quot;&gt; - Status: string&lt;/font&gt;&lt;/pre&gt;&lt;/pre&gt;" style="text;strokeColor=none;fillColor=none;align=left;verticalAlign=top;spacingLeft=4;spacingRight=4;overflow=hidden;rotatable=0;points=[[0,0.5],[1,0.5]];portConstraint=eastwest;whiteSpace=wrap;html=1;" vertex="1" parent="kLguh2nxEDngK2DsZuyt-23">
          <mxGeometry y="104" width="290" height="26" as="geometry" />
        </mxCell>
        <mxCell id="kLguh2nxEDngK2DsZuyt-28" value="&lt;pre style=&quot;box-sizing: border-box; font-variant-numeric: normal; font-variant-east-asian: normal; font-variant-alternates: normal; font-variant-position: normal; font-kerning: auto; font-optical-sizing: auto; font-feature-settings: normal; font-variation-settings: normal; font-stretch: normal; line-height: 1.25; font-family: var(--font-family-monospace); margin-top: 0px; margin-bottom: 0px; overflow: hidden; --color-scrollbar: var(--color-scrollbar-code); text-wrap: wrap; --color-type: #0053d4; --color-keyword: #388e22; --color-class: #3e6c20; --color-string: #9a1111; --color-template: #9A5334; --color-selector: #9A5334; --color-function: #a753b7; --color-comment: #616161; --color-section: #9a1111; --color-variable: #BD63C5; --color-attribute: #276b8f; --color-link: #276b8f; --color-tag: #000000;&quot; data-language=&quot;&quot; data-entity-type=&quot;MessageEntityPre&quot; class=&quot;code-block&quot;&gt;&lt;pre style=&quot;box-sizing: border-box; font-variant-numeric: normal; font-variant-east-asian: normal; font-variant-alternates: normal; font-variant-position: normal; font-kerning: auto; font-optical-sizing: auto; font-feature-settings: normal; font-variation-settings: normal; font-stretch: normal; line-height: 1.25; font-family: var(--font-family-monospace); margin-top: 0px; margin-bottom: 0px; overflow: hidden; --color-scrollbar: var(--color-scrollbar-code); text-wrap: wrap; --color-type: #0053d4; --color-keyword: #388e22; --color-class: #3e6c20; --color-string: #9a1111; --color-template: #9A5334; --color-selector: #9A5334; --color-function: #a753b7; --color-comment: #616161; --color-section: #9a1111; --color-variable: #BD63C5; --color-attribute: #276b8f; --color-link: #276b8f; --color-tag: #000000;&quot; data-language=&quot;&quot; data-entity-type=&quot;MessageEntityPre&quot; class=&quot;code-block&quot;&gt;&lt;pre style=&quot;box-sizing: border-box; font-variant-numeric: normal; font-variant-east-asian: normal; font-variant-alternates: normal; font-variant-position: normal; font-kerning: auto; font-optical-sizing: auto; font-feature-settings: normal; font-variation-settings: normal; font-stretch: normal; line-height: 1.25; font-family: var(--font-family-monospace); margin-top: 0px; margin-bottom: 0px; overflow: hidden; --color-scrollbar: var(--color-scrollbar-code); text-wrap: wrap; --color-type: #0053d4; --color-keyword: #388e22; --color-class: #3e6c20; --color-string: #9a1111; --color-template: #9A5334; --color-selector: #9A5334; --color-function: #a753b7; --color-comment: #616161; --color-section: #9a1111; --color-variable: #BD63C5; --color-attribute: #276b8f; --color-link: #276b8f; --color-tag: #000000;&quot; data-language=&quot;&quot; data-entity-type=&quot;MessageEntityPre&quot; class=&quot;code-block&quot;&gt;&lt;font style=&quot;font-size: 12px;&quot;&gt;- ReportedBy: User&lt;/font&gt;&lt;/pre&gt;&lt;/pre&gt;&lt;/pre&gt;" style="text;strokeColor=none;fillColor=none;align=left;verticalAlign=top;spacingLeft=4;spacingRight=4;overflow=hidden;rotatable=0;points=[[0,0.5],[1,0.5]];portConstraint=eastwest;whiteSpace=wrap;html=1;" vertex="1" parent="kLguh2nxEDngK2DsZuyt-23">
          <mxGeometry y="130" width="290" height="26" as="geometry" />
        </mxCell>
        <mxCell id="kLguh2nxEDngK2DsZuyt-29" value="" style="line;strokeWidth=1;fillColor=none;align=left;verticalAlign=middle;spacingTop=-1;spacingLeft=3;spacingRight=3;rotatable=0;labelPosition=right;points=[];portConstraint=eastwest;strokeColor=inherit;" vertex="1" parent="kLguh2nxEDngK2DsZuyt-23">
          <mxGeometry y="156" width="290" height="8" as="geometry" />
        </mxCell>
        <mxCell id="kLguh2nxEDngK2DsZuyt-30" value="&lt;pre style=&quot;box-sizing: border-box; font-variant-numeric: normal; font-variant-east-asian: normal; font-variant-alternates: normal; font-variant-position: normal; font-kerning: auto; font-optical-sizing: auto; font-feature-settings: normal; font-variation-settings: normal; font-stretch: normal; line-height: 1.25; font-family: var(--font-family-monospace); margin-top: 0px; margin-bottom: 0px; overflow: hidden; --color-scrollbar: var(--color-scrollbar-code); text-wrap: wrap; --color-type: #0053d4; --color-keyword: #388e22; --color-class: #3e6c20; --color-string: #9a1111; --color-template: #9A5334; --color-selector: #9A5334; --color-function: #a753b7; --color-comment: #616161; --color-section: #9a1111; --color-variable: #BD63C5; --color-attribute: #276b8f; --color-link: #276b8f; --color-tag: #000000;&quot; data-language=&quot;&quot; data-entity-type=&quot;MessageEntityPre&quot; class=&quot;code-block&quot;&gt;&lt;font style=&quot;font-size: 12px;&quot;&gt;+ AssignToSupport(TechnicalSupport): bool&lt;/font&gt;&lt;/pre&gt;" style="text;strokeColor=none;fillColor=none;align=left;verticalAlign=top;spacingLeft=4;spacingRight=4;overflow=hidden;rotatable=0;points=[[0,0.5],[1,0.5]];portConstraint=eastwest;whiteSpace=wrap;html=1;" vertex="1" parent="kLguh2nxEDngK2DsZuyt-23">
          <mxGeometry y="164" width="290" height="26" as="geometry" />
        </mxCell>
        <mxCell id="kLguh2nxEDngK2DsZuyt-31" value="&lt;pre style=&quot;box-sizing: border-box; font-variant-numeric: normal; font-variant-east-asian: normal; font-variant-alternates: normal; font-variant-position: normal; font-kerning: auto; font-optical-sizing: auto; font-feature-settings: normal; font-variation-settings: normal; font-stretch: normal; line-height: 1.25; font-family: var(--font-family-monospace); margin-top: 0px; margin-bottom: 0px; overflow: hidden; --color-scrollbar: var(--color-scrollbar-code); text-wrap: wrap; --color-type: #0053d4; --color-keyword: #388e22; --color-class: #3e6c20; --color-string: #9a1111; --color-template: #9A5334; --color-selector: #9A5334; --color-function: #a753b7; --color-comment: #616161; --color-section: #9a1111; --color-variable: #BD63C5; --color-attribute: #276b8f; --color-link: #276b8f; --color-tag: #000000;&quot; data-language=&quot;&quot; data-entity-type=&quot;MessageEntityPre&quot; class=&quot;code-block&quot;&gt;&lt;pre style=&quot;box-sizing: border-box; font-variant-numeric: normal; font-variant-east-asian: normal; font-variant-alternates: normal; font-variant-position: normal; font-kerning: auto; font-optical-sizing: auto; font-feature-settings: normal; font-variation-settings: normal; font-stretch: normal; line-height: 1.25; font-family: var(--font-family-monospace); margin-top: 0px; margin-bottom: 0px; overflow: hidden; --color-scrollbar: var(--color-scrollbar-code); text-wrap: wrap; --color-type: #0053d4; --color-keyword: #388e22; --color-class: #3e6c20; --color-string: #9a1111; --color-template: #9A5334; --color-selector: #9A5334; --color-function: #a753b7; --color-comment: #616161; --color-section: #9a1111; --color-variable: #BD63C5; --color-attribute: #276b8f; --color-link: #276b8f; --color-tag: #000000;&quot; data-language=&quot;&quot; data-entity-type=&quot;MessageEntityPre&quot; class=&quot;code-block&quot;&gt;&lt;font style=&quot;font-size: 12px;&quot;&gt;+ UpdateStatus(string): bool&lt;/font&gt;&lt;/pre&gt;&lt;/pre&gt;" style="text;strokeColor=none;fillColor=none;align=left;verticalAlign=top;spacingLeft=4;spacingRight=4;overflow=hidden;rotatable=0;points=[[0,0.5],[1,0.5]];portConstraint=eastwest;whiteSpace=wrap;html=1;" vertex="1" parent="kLguh2nxEDngK2DsZuyt-23">
          <mxGeometry y="190" width="290" height="26" as="geometry" />
        </mxCell>
        <mxCell id="kLguh2nxEDngK2DsZuyt-32" value="" style="endArrow=none;html=1;edgeStyle=orthogonalEdgeStyle;rounded=0;" edge="1" parent="1">
          <mxGeometry relative="1" as="geometry">
            <mxPoint x="870" y="230" as="sourcePoint" />
            <mxPoint x="1030" y="230" as="targetPoint" />
          </mxGeometry>
        </mxCell>
        <mxCell id="kLguh2nxEDngK2DsZuyt-33" value="1" style="edgeLabel;resizable=0;html=1;align=left;verticalAlign=bottom;" connectable="0" vertex="1" parent="kLguh2nxEDngK2DsZuyt-32">
          <mxGeometry x="-1" relative="1" as="geometry" />
        </mxCell>
        <mxCell id="kLguh2nxEDngK2DsZuyt-34" value="1...*" style="edgeLabel;resizable=0;html=1;align=right;verticalAlign=bottom;" connectable="0" vertex="1" parent="kLguh2nxEDngK2DsZuyt-32">
          <mxGeometry x="1" relative="1" as="geometry" />
        </mxCell>
        <mxCell id="kLguh2nxEDngK2DsZuyt-35" value="&lt;span style=&quot;font-weight: normal;&quot;&gt;Продавец&lt;/span&gt;" style="swimlane;fontStyle=1;align=center;verticalAlign=top;childLayout=stackLayout;horizontal=1;startSize=26;horizontalStack=0;resizeParent=1;resizeParentMax=0;resizeLast=0;collapsible=1;marginBottom=0;whiteSpace=wrap;html=1;" vertex="1" parent="1">
          <mxGeometry x="660" y="370" width="230" height="164" as="geometry" />
        </mxCell>
        <mxCell id="kLguh2nxEDngK2DsZuyt-36" value="- ID: int" style="text;strokeColor=none;fillColor=none;align=left;verticalAlign=top;spacingLeft=4;spacingRight=4;overflow=hidden;rotatable=0;points=[[0,0.5],[1,0.5]];portConstraint=eastwest;whiteSpace=wrap;html=1;" vertex="1" parent="kLguh2nxEDngK2DsZuyt-35">
          <mxGeometry y="26" width="230" height="26" as="geometry" />
        </mxCell>
        <mxCell id="kLguh2nxEDngK2DsZuyt-37" value="+ Номер телефона: int" style="text;strokeColor=none;fillColor=none;align=left;verticalAlign=top;spacingLeft=4;spacingRight=4;overflow=hidden;rotatable=0;points=[[0,0.5],[1,0.5]];portConstraint=eastwest;whiteSpace=wrap;html=1;" vertex="1" parent="kLguh2nxEDngK2DsZuyt-35">
          <mxGeometry y="52" width="230" height="26" as="geometry" />
        </mxCell>
        <mxCell id="kLguh2nxEDngK2DsZuyt-38" value="" style="line;strokeWidth=1;fillColor=none;align=left;verticalAlign=middle;spacingTop=-1;spacingLeft=3;spacingRight=3;rotatable=0;labelPosition=right;points=[];portConstraint=eastwest;strokeColor=inherit;" vertex="1" parent="kLguh2nxEDngK2DsZuyt-35">
          <mxGeometry y="78" width="230" height="8" as="geometry" />
        </mxCell>
        <mxCell id="kLguh2nxEDngK2DsZuyt-39" value="+ ViewCustomerPurchases(): void" style="text;strokeColor=none;fillColor=none;align=left;verticalAlign=top;spacingLeft=4;spacingRight=4;overflow=hidden;rotatable=0;points=[[0,0.5],[1,0.5]];portConstraint=eastwest;whiteSpace=wrap;html=1;" vertex="1" parent="kLguh2nxEDngK2DsZuyt-35">
          <mxGeometry y="86" width="230" height="26" as="geometry" />
        </mxCell>
        <mxCell id="kLguh2nxEDngK2DsZuyt-40" value="+ CallFor&lt;span style=&quot;white-space-collapse: preserve; background-color: rgb(255, 255, 255);&quot;&gt;TechnicalSupport(): void&lt;/span&gt;" style="text;strokeColor=none;fillColor=none;align=left;verticalAlign=top;spacingLeft=4;spacingRight=4;overflow=hidden;rotatable=0;points=[[0,0.5],[1,0.5]];portConstraint=eastwest;whiteSpace=wrap;html=1;" vertex="1" parent="kLguh2nxEDngK2DsZuyt-35">
          <mxGeometry y="112" width="230" height="26" as="geometry" />
        </mxCell>
        <mxCell id="kLguh2nxEDngK2DsZuyt-41" value="+ AddPurchaseID(): void" style="text;strokeColor=none;fillColor=none;align=left;verticalAlign=top;spacingLeft=4;spacingRight=4;overflow=hidden;rotatable=0;points=[[0,0.5],[1,0.5]];portConstraint=eastwest;whiteSpace=wrap;html=1;" vertex="1" parent="kLguh2nxEDngK2DsZuyt-35">
          <mxGeometry y="138" width="230" height="26" as="geometry" />
        </mxCell>
        <mxCell id="kLguh2nxEDngK2DsZuyt-42" value="" style="endArrow=none;html=1;edgeStyle=orthogonalEdgeStyle;rounded=0;" edge="1" parent="1">
          <mxGeometry relative="1" as="geometry">
            <mxPoint x="580" y="396" as="sourcePoint" />
            <mxPoint x="660" y="396" as="targetPoint" />
          </mxGeometry>
        </mxCell>
        <mxCell id="kLguh2nxEDngK2DsZuyt-43" value="1" style="edgeLabel;resizable=0;html=1;align=left;verticalAlign=bottom;" connectable="0" vertex="1" parent="kLguh2nxEDngK2DsZuyt-42">
          <mxGeometry x="-1" relative="1" as="geometry" />
        </mxCell>
        <mxCell id="kLguh2nxEDngK2DsZuyt-44" value="1...*" style="edgeLabel;resizable=0;html=1;align=right;verticalAlign=bottom;" connectable="0" vertex="1" parent="kLguh2nxEDngK2DsZuyt-42">
          <mxGeometry x="1" relative="1" as="geometry" />
        </mxCell>
        <mxCell id="kLguh2nxEDngK2DsZuyt-45" value="&lt;p style=&quot;margin:0px;margin-top:4px;text-align:center;&quot;&gt;&lt;i&gt;Оформление покупки&lt;/i&gt;&lt;/p&gt;&lt;hr size=&quot;1&quot; style=&quot;border-style:solid;&quot;&gt;&lt;p style=&quot;margin:0px;margin-left:4px;&quot;&gt;+Общая сумма:int&lt;/p&gt;&lt;p style=&quot;margin:0px;margin-left:4px;&quot;&gt;+Количество товаров:int&lt;/p&gt;&lt;p style=&quot;margin:0px;margin-left:4px;&quot;&gt;+Товар:int&lt;/p&gt;&lt;p style=&quot;margin:0px;margin-left:4px;&quot;&gt;+Номер товара:int&lt;/p&gt;&lt;hr size=&quot;1&quot; style=&quot;border-style:solid;&quot;&gt;&lt;p style=&quot;margin:0px;margin-left:4px;&quot;&gt;+ Remove(): void&lt;br&gt;&lt;/p&gt;" style="verticalAlign=top;align=left;overflow=fill;html=1;whiteSpace=wrap;" vertex="1" parent="1">
          <mxGeometry x="690" y="590" width="190" height="140" as="geometry" />
        </mxCell>
        <mxCell id="kLguh2nxEDngK2DsZuyt-46" value="1" style="endArrow=open;html=1;endSize=12;startArrow=diamondThin;startSize=14;startFill=1;edgeStyle=orthogonalEdgeStyle;align=left;verticalAlign=bottom;rounded=0;exitX=1;exitY=1;exitDx=0;exitDy=0;entryX=0;entryY=0;entryDx=0;entryDy=0;" edge="1" parent="1" source="kLguh2nxEDngK2DsZuyt-9" target="kLguh2nxEDngK2DsZuyt-45">
          <mxGeometry x="-1" y="3" relative="1" as="geometry">
            <mxPoint x="630" y="530" as="sourcePoint" />
            <mxPoint x="790" y="530" as="targetPoint" />
          </mxGeometry>
        </mxCell>
        <mxCell id="kLguh2nxEDngK2DsZuyt-48" value="Интерфейс&lt;span style=&quot;color: rgba(0, 0, 0, 0); font-family: monospace; font-size: 0px; text-align: start; text-wrap: nowrap;&quot;&gt;%3CmxGraphModel%3E%3Croot%3E%3CmxCell%20id%3D%220%22%2F%3E%3CmxCell%20id%3D%221%22%20parent%3D%220%22%2F%3E%3CmxCell%20id%3D%222%22%20value%3D%22%26lt%3Bspan%20style%3D%26quot%3Bfont-weight%3A%20normal%3B%26quot%3B%26gt%3BSettings%26lt%3B%2Fspan%26gt%3B%22%20style%3D%22swimlane%3BfontStyle%3D1%3Balign%3Dcenter%3BverticalAlign%3Dtop%3BchildLayout%3DstackLayout%3Bhorizontal%3D1%3BstartSize%3D26%3BhorizontalStack%3D0%3BresizeParent%3D1%3BresizeParentMax%3D0%3BresizeLast%3D0%3Bcollapsible%3D1%3BmarginBottom%3D0%3BwhiteSpace%3Dwrap%3Bhtml%3D1%3B%22%20vertex%3D%221%22%20parent%3D%221%22%3E%3CmxGeometry%20x%3D%22840%22%20y%3D%221040%22%20width%3D%22220%22%20height%3D%22138%22%20as%3D%22geometry%22%2F%3E%3C%2FmxCell%3E%3CmxCell%20id%3D%223%22%20value%3D%22%26lt%3Bpre%20style%3D%26quot%3Bbox-sizing%3A%20border-box%3B%20font-variant-numeric%3A%20normal%3B%20font-variant-east-asian%3A%20normal%3B%20font-variant-alternates%3A%20normal%3B%20font-variant-position%3A%20normal%3B%20font-kerning%3A%20auto%3B%20font-optical-sizing%3A%20auto%3B%20font-feature-settings%3A%20normal%3B%20font-variation-settings%3A%20normal%3B%20font-stretch%3A%20normal%3B%20line-height%3A%201.25%3B%20font-family%3A%20var(--font-family-monospace)%3B%20margin-top%3A%200px%3B%20margin-bottom%3A%200px%3B%20overflow%3A%20hidden%3B%20--color-scrollbar%3A%20var(--color-scrollbar-code)%3B%20text-wrap%3A%20wrap%3B%20--color-type%3A%20%230053d4%3B%20--color-keyword%3A%20%23388e22%3B%20--color-class%3A%20%233e6c20%3B%20--color-string%3A%20%239a1111%3B%20--color-template%3A%20%239A5334%3B%20--color-selector%3A%20%239A5334%3B%20--color-function%3A%20%23a753b7%3B%20--color-comment%3A%20%23616161%3B%20--color-section%3A%20%239a1111%3B%20--color-variable%3A%20%23BD63C5%3B%20--color-attribute%3A%20%23276b8f%3B%20--color-link%3A%20%23276b8f%3B%20--color-tag%3A%20%23000000%3B%26quot%3B%20data-language%3D%26quot%3B%26quot%3B%20data-entity-type%3D%26quot%3BMessageEntityPre%26quot%3B%20class%3D%26quot%3Bcode-block%26quot%3B%26gt%3B%26lt%3Bfont%20style%3D%26quot%3Bfont-size%3A%2012px%3B%26quot%3B%26gt%3B-%20Language%3A%20string%26lt%3B%2Ffont%26gt%3B%26lt%3B%2Fpre%26gt%3B%22%20style%3D%22text%3BstrokeColor%3Dnone%3BfillColor%3Dnone%3Balign%3Dleft%3BverticalAlign%3Dtop%3BspacingLeft%3D4%3BspacingRight%3D4%3Boverflow%3Dhidden%3Brotatable%3D0%3Bpoints%3D%5B%5B0%2C0.5%5D%2C%5B1%2C0.5%5D%5D%3BportConstraint%3Deastwest%3BwhiteSpace%3Dwrap%3Bhtml%3D1%3B%22%20vertex%3D%221%22%20parent%3D%222%22%3E%3CmxGeometry%20y%3D%2226%22%20width%3D%22220%22%20height%3D%2226%22%20as%3D%22geometry%22%2F%3E%3C%2FmxCell%3E%3CmxCell%20id%3D%224%22%20value%3D%22%26lt%3Bpre%20style%3D%26quot%3Bbox-sizing%3A%20border-box%3B%20font-variant-numeric%3A%20normal%3B%20font-variant-east-asian%3A%20normal%3B%20font-variant-alternates%3A%20normal%3B%20font-variant-position%3A%20normal%3B%20font-kerning%3A%20auto%3B%20font-optical-sizing%3A%20auto%3B%20font-feature-settings%3A%20normal%3B%20font-variation-settings%3A%20normal%3B%20font-stretch%3A%20normal%3B%20line-height%3A%201.25%3B%20font-family%3A%20var(--font-family-monospace)%3B%20margin-top%3A%200px%3B%20margin-bottom%3A%200px%3B%20overflow%3A%20hidden%3B%20--color-scrollbar%3A%20var(--color-scrollbar-code)%3B%20text-wrap%3A%20wrap%3B%20--color-type%3A%20%230053d4%3B%20--color-keyword%3A%20%23388e22%3B%20--color-class%3A%20%233e6c20%3B%20--color-string%3A%20%239a1111%3B%20--color-template%3A%20%239A5334%3B%20--color-selector%3A%20%239A5334%3B%20--color-function%3A%20%23a753b7%3B%20--color-comment%3A%20%23616161%3B%20--color-section%3A%20%239a1111%3B%20--color-variable%3A%20%23BD63C5%3B%20--color-attribute%3A%20%23276b8f%3B%20--color-link%3A%20%23276b8f%3B%20--color-tag%3A%20%23000000%3B%26quot%3B%20data-language%3D%26quot%3B%26quot%3B%20data-entity-type%3D%26quot%3BMessageEntityPre%26quot%3B%20class%3D%26quot%3Bcode-block%26quot%3B%26gt%3B%26lt%3Bpre%20style%3D%26quot%3Bbox-sizing%3A%20border-box%3B%20font-variant-numeric%3A%20normal%3B%20font-variant-east-asian%3A%20normal%3B%20font-variant-alternates%3A%20normal%3B%20font-variant-position%3A%20normal%3B%20font-kerning%3A%20auto%3B%20font-optical-sizing%3A%20auto%3B%20font-feature-settings%3A%20normal%3B%20font-variation-settings%3A%20normal%3B%20font-stretch%3A%20normal%3B%20line-height%3A%201.25%3B%20font-family%3A%20var(--font-family-monospace)%3B%20margin-top%3A%200px%3B%20margin-bottom%3A%200px%3B%20overflow%3A%20hidden%3B%20--color-scrollbar%3A%20var(--color-scrollbar-code)%3B%20text-wrap%3A%20wrap%3B%20--color-type%3A%20%230053d4%3B%20--color-keyword%3A%20%23388e22%3B%20--color-class%3A%20%233e6c20%3B%20--color-string%3A%20%239a1111%3B%20--color-template%3A%20%239A5334%3B%20--color-selector%3A%20%239A5334%3B%20--color-function%3A%20%23a753b7%3B%20--color-comment%3A%20%23616161%3B%20--color-section%3A%20%239a1111%3B%20--color-variable%3A%20%23BD63C5%3B%20--color-attribute%3A%20%23276b8f%3B%20--color-link%3A%20%23276b8f%3B%20--color-tag%3A%20%23000000%3B%26quot%3B%20data-language%3D%26quot%3B%26quot%3B%20data-entity-type%3D%26quot%3BMessageEntityPre%26quot%3B%20class%3D%26quot%3Bcode-block%26quot%3B%26gt%3B%26lt%3Bfont%20style%3D%26quot%3Bfont-size%3A%2012px%3B%26quot%3B%26gt%3B-%20Theme%3A%20string%26lt%3B%2Ffont%26gt%3B%26lt%3B%2Fpre%26gt%3B%26lt%3B%2Fpre%26gt%3B%22%20style%3D%22text%3BstrokeColor%3Dnone%3BfillColor%3Dnone%3Balign%3Dleft%3BverticalAlign%3Dtop%3BspacingLeft%3D4%3BspacingRight%3D4%3Boverflow%3Dhidden%3Brotatable%3D0%3Bpoints%3D%5B%5B0%2C0.5%5D%2C%5B1%2C0.5%5D%5D%3BportConstraint%3Deastwest%3BwhiteSpace%3Dwrap%3Bhtml%3D1%3B%22%20vertex%3D%221%22%20parent%3D%222%22%3E%3CmxGeometry%20y%3D%2252%22%20width%3D%22220%22%20height%3D%2226%22%20as%3D%22geometry%22%2F%3E%3C%2FmxCell%3E%3CmxCell%20id%3D%225%22%20value%3D%22%22%20style%3D%22line%3BstrokeWidth%3D1%3BfillColor%3Dnone%3Balign%3Dleft%3BverticalAlign%3Dmiddle%3BspacingTop%3D-1%3BspacingLeft%3D3%3BspacingRight%3D3%3Brotatable%3D0%3BlabelPosition%3Dright%3Bpoints%3D%5B%5D%3BportConstraint%3Deastwest%3BstrokeColor%3Dinherit%3B%22%20vertex%3D%221%22%20parent%3D%222%22%3E%3CmxGeometry%20y%3D%2278%22%20width%3D%22220%22%20height%3D%228%22%20as%3D%22geometry%22%2F%3E%3C%2FmxCell%3E%3CmxCell%20id%3D%226%22%20value%3D%22%26lt%3Bpre%20style%3D%26quot%3Bbox-sizing%3A%20border-box%3B%20font-variant-numeric%3A%20normal%3B%20font-variant-east-asian%3A%20normal%3B%20font-variant-alternates%3A%20normal%3B%20font-variant-position%3A%20normal%3B%20font-kerning%3A%20auto%3B%20font-optical-sizing%3A%20auto%3B%20font-feature-settings%3A%20normal%3B%20font-variation-settings%3A%20normal%3B%20font-stretch%3A%20normal%3B%20line-height%3A%201.25%3B%20font-family%3A%20var(--font-family-monospace)%3B%20margin-top%3A%200px%3B%20margin-bottom%3A%200px%3B%20overflow%3A%20hidden%3B%20--color-scrollbar%3A%20var(--color-scrollbar-code)%3B%20text-wrap%3A%20wrap%3B%20--color-type%3A%20%230053d4%3B%20--color-keyword%3A%20%23388e22%3B%20--color-class%3A%20%233e6c20%3B%20--color-string%3A%20%239a1111%3B%20--color-template%3A%20%239A5334%3B%20--color-selector%3A%20%239A5334%3B%20--color-function%3A%20%23a753b7%3B%20--color-comment%3A%20%23616161%3B%20--color-section%3A%20%239a1111%3B%20--color-variable%3A%20%23BD63C5%3B%20--color-attribute%3A%20%23276b8f%3B%20--color-link%3A%20%23276b8f%3B%20--color-tag%3A%20%23000000%3B%26quot%3B%20data-language%3D%26quot%3B%26quot%3B%20data-entity-type%3D%26quot%3BMessageEntityPre%26quot%3B%20class%3D%26quot%3Bcode-block%26quot%3B%26gt%3B%26lt%3Bfont%20style%3D%26quot%3Bfont-size%3A%2012px%3B%26quot%3B%26gt%3B%2B%20ChangeLanguage()%3A%20void%26lt%3B%2Ffont%26gt%3B%26lt%3B%2Fpre%26gt%3B%22%20style%3D%22text%3BstrokeColor%3Dnone%3BfillColor%3Dnone%3Balign%3Dleft%3BverticalAlign%3Dtop%3BspacingLeft%3D4%3BspacingRight%3D4%3Boverflow%3Dhidden%3Brotatable%3D0%3Bpoints%3D%5B%5B0%2C0.5%5D%2C%5B1%2C0.5%5D%5D%3BportConstraint%3Deastwest%3BwhiteSpace%3Dwrap%3Bhtml%3D1%3B%22%20vertex%3D%221%22%20parent%3D%222%22%3E%3CmxGeometry%20y%3D%2286%22%20width%3D%22220%22%20height%3D%2226%22%20as%3D%22geometry%22%2F%3E%3C%2FmxCell%3E%3CmxCell%20id%3D%227%22%20value%3D%22%26lt%3Bpre%20style%3D%26quot%3Bbox-sizing%3A%20border-box%3B%20font-variant-numeric%3A%20normal%3B%20font-variant-east-asian%3A%20normal%3B%20font-variant-alternates%3A%20normal%3B%20font-variant-position%3A%20normal%3B%20font-kerning%3A%20auto%3B%20font-optical-sizing%3A%20auto%3B%20font-feature-settings%3A%20normal%3B%20font-variation-settings%3A%20normal%3B%20font-stretch%3A%20normal%3B%20line-height%3A%201.25%3B%20font-family%3A%20var(--font-family-monospace)%3B%20margin-top%3A%200px%3B%20margin-bottom%3A%200px%3B%20overflow%3A%20hidden%3B%20--color-scrollbar%3A%20var(--color-scrollbar-code)%3B%20text-wrap%3A%20wrap%3B%20--color-type%3A%20%230053d4%3B%20--color-keyword%3A%20%23388e22%3B%20--color-class%3A%20%233e6c20%3B%20--color-string%3A%20%239a1111%3B%20--color-template%3A%20%239A5334%3B%20--color-selector%3A%20%239A5334%3B%20--color-function%3A%20%23a753b7%3B%20--color-comment%3A%20%23616161%3B%20--color-section%3A%20%239a1111%3B%20--color-variable%3A%20%23BD63C5%3B%20--color-attribute%3A%20%23276b8f%3B%20--color-link%3A%20%23276b8f%3B%20--color-tag%3A%20%23000000%3B%26quot%3B%20data-language%3D%26quot%3B%26quot%3B%20data-entity-type%3D%26quot%3BMessageEntityPre%26quot%3B%20class%3D%26quot%3Bcode-block%26quot%3B%26gt%3B%26lt%3Bpre%20style%3D%26quot%3Bbox-sizing%3A%20border-box%3B%20font-variant-numeric%3A%20normal%3B%20font-variant-east-asian%3A%20normal%3B%20font-variant-alternates%3A%20normal%3B%20font-variant-position%3A%20normal%3B%20font-kerning%3A%20auto%3B%20font-optical-sizing%3A%20auto%3B%20font-feature-settings%3A%20normal%3B%20font-variation-settings%3A%20normal%3B%20font-stretch%3A%20normal%3B%20line-height%3A%201.25%3B%20font-family%3A%20var(--font-family-monospace)%3B%20margin-top%3A%200px%3B%20margin-bottom%3A%200px%3B%20overflow%3A%20hidden%3B%20--color-scrollbar%3A%20var(--color-scrollbar-code)%3B%20text-wrap%3A%20wrap%3B%20--color-type%3A%20%230053d4%3B%20--color-keyword%3A%20%23388e22%3B%20--color-class%3A%20%233e6c20%3B%20--color-string%3A%20%239a1111%3B%20--color-template%3A%20%239A5334%3B%20--color-selector%3A%20%239A5334%3B%20--color-function%3A%20%23a753b7%3B%20--color-comment%3A%20%23616161%3B%20--color-section%3A%20%239a1111%3B%20--color-variable%3A%20%23BD63C5%3B%20--color-attribute%3A%20%23276b8f%3B%20--color-link%3A%20%23276b8f%3B%20--color-tag%3A%20%23000000%3B%26quot%3B%20data-language%3D%26quot%3B%26quot%3B%20data-entity-type%3D%26quot%3BMessageEntityPre%26quot%3B%20class%3D%26quot%3Bcode-block%26quot%3B%26gt%3B%26lt%3Bfont%20style%3D%26quot%3Bfont-size%3A%2012px%3B%26quot%3B%26gt%3B%2B%20ChangeTheme()%3A%20void%26lt%3B%2Ffont%26gt%3B%26lt%3B%2Fpre%26gt%3B%26lt%3B%2Fpre%26gt%3B%22%20style%3D%22text%3BstrokeColor%3Dnone%3BfillColor%3Dnone%3Balign%3Dleft%3BverticalAlign%3Dtop%3BspacingLeft%3D4%3BspacingRight%3D4%3Boverflow%3Dhidden%3Brotatable%3D0%3Bpoints%3D%5B%5B0%2C0.5%5D%2C%5B1%2C0.5%5D%5D%3BportConstraint%3Deastwest%3BwhiteSpace%3Dwrap%3Bhtml%3D1%3B%22%20vertex%3D%221%22%20parent%3D%222%22%3E%3CmxGeometry%20y%3D%22112%22%20width%3D%22220%22%20height%3D%2226%22%20as%3D%22geometry%22%2F%3E%3C%2FmxCell%3E%3C%2Froot%3E%3C%2FmxGraphModel%3E&lt;/span&gt;" style="swimlane;fontStyle=0;childLayout=stackLayout;horizontal=1;startSize=26;fillColor=none;horizontalStack=0;resizeParent=1;resizeParentMax=0;resizeLast=0;collapsible=1;marginBottom=0;whiteSpace=wrap;html=1;" vertex="1" parent="1">
          <mxGeometry x="1050" y="590" width="250" height="158" as="geometry">
            <mxRectangle x="800" y="500" width="120" height="30" as="alternateBounds" />
          </mxGeometry>
        </mxCell>
        <mxCell id="kLguh2nxEDngK2DsZuyt-49" value="" style="line;html=1;strokeWidth=1;align=left;verticalAlign=middle;spacingTop=-1;spacingLeft=3;spacingRight=3;rotatable=0;labelPosition=right;points=[];portConstraint=eastwest;" vertex="1" parent="kLguh2nxEDngK2DsZuyt-48">
          <mxGeometry y="26" width="250" height="54" as="geometry" />
        </mxCell>
        <mxCell id="kLguh2nxEDngK2DsZuyt-50" value="+ &amp;lt;&amp;lt;abstract, const&amp;gt;&amp;gt;&amp;nbsp; View()" style="text;strokeColor=none;fillColor=none;align=left;verticalAlign=top;spacingLeft=4;spacingRight=4;overflow=hidden;rotatable=0;points=[[0,0.5],[1,0.5]];portConstraint=eastwest;whiteSpace=wrap;html=1;" vertex="1" parent="kLguh2nxEDngK2DsZuyt-48">
          <mxGeometry y="80" width="250" height="26" as="geometry" />
        </mxCell>
        <mxCell id="kLguh2nxEDngK2DsZuyt-51" value="+ &amp;lt;&amp;lt;abstract, const&amp;gt;&amp;gt; Search()" style="text;strokeColor=none;fillColor=none;align=left;verticalAlign=top;spacingLeft=4;spacingRight=4;overflow=hidden;rotatable=0;points=[[0,0.5],[1,0.5]];portConstraint=eastwest;whiteSpace=wrap;html=1;" vertex="1" parent="kLguh2nxEDngK2DsZuyt-48">
          <mxGeometry y="106" width="250" height="26" as="geometry" />
        </mxCell>
        <mxCell id="kLguh2nxEDngK2DsZuyt-52" value="+ &amp;lt;&amp;lt;abstract, const&amp;gt;&amp;gt; Pay()" style="text;strokeColor=none;fillColor=none;align=left;verticalAlign=top;spacingLeft=4;spacingRight=4;overflow=hidden;rotatable=0;points=[[0,0.5],[1,0.5]];portConstraint=eastwest;whiteSpace=wrap;html=1;" vertex="1" parent="kLguh2nxEDngK2DsZuyt-48">
          <mxGeometry y="132" width="250" height="26" as="geometry" />
        </mxCell>
        <mxCell id="kLguh2nxEDngK2DsZuyt-75" value="&lt;p style=&quot;margin:0px;margin-top:4px;text-align:center;&quot;&gt;&lt;i&gt;Аксессуары&lt;/i&gt;&lt;/p&gt;&lt;hr size=&quot;1&quot; style=&quot;border-style:solid;&quot;&gt;&lt;p style=&quot;margin:0px;margin-left:4px;&quot;&gt;+ type:string&lt;br&gt;&lt;/p&gt;&lt;p style=&quot;margin:0px;margin-left:4px;&quot;&gt;+ m_Inf: sData&lt;/p&gt;&lt;hr size=&quot;1&quot; style=&quot;border-style:solid;&quot;&gt;&lt;p style=&quot;margin:0px;margin-left:4px;&quot;&gt;+ Accessories(_data:sData)&lt;br&gt;&lt;/p&gt;&lt;p style=&quot;margin:0px;margin-left:4px;&quot;&gt;+ Searching(data:data: sData): void&lt;/p&gt;&lt;p style=&quot;margin:0px;margin-left:4px;&quot;&gt;+chooseType(type: String)&lt;/p&gt;&lt;p style=&quot;margin:0px;margin-left:4px;&quot;&gt;+IseVinnumberToFindEquivalents(): void&lt;/p&gt;&lt;p style=&quot;margin:0px;margin-left:4px;&quot;&gt;+&amp;lt;&amp;lt;virtual, const&amp;gt;&amp;gt; Order():void&lt;/p&gt;&lt;p style=&quot;margin:0px;margin-left:4px;&quot;&gt;+&amp;lt;&amp;lt;virtual, const&amp;gt;&amp;gt; View():void&lt;br&gt;&lt;/p&gt;&lt;p style=&quot;margin:0px;margin-left:4px;&quot;&gt;&lt;br&gt;&lt;/p&gt;" style="verticalAlign=top;align=left;overflow=fill;html=1;whiteSpace=wrap;" vertex="1" parent="1">
          <mxGeometry x="840" y="830" width="230" height="160" as="geometry" />
        </mxCell>
        <mxCell id="kLguh2nxEDngK2DsZuyt-76" value="&lt;p style=&quot;margin:0px;margin-top:4px;text-align:center;&quot;&gt;&lt;i&gt;Средства м/м&lt;/i&gt;&lt;/p&gt;&lt;hr size=&quot;1&quot; style=&quot;border-style:solid;&quot;&gt;&lt;p style=&quot;margin:0px;margin-left:4px;&quot;&gt;&lt;span style=&quot;background-color: initial;&quot;&gt;+ type:string&lt;/span&gt;&lt;/p&gt;&lt;p style=&quot;margin: 0px 0px 0px 4px;&quot;&gt;+ m_Inf: sData&lt;/p&gt;&lt;hr size=&quot;1&quot; style=&quot;border-style:solid;&quot;&gt;&lt;p style=&quot;margin: 0px 0px 0px 4px;&quot;&gt;+ Oilandsoap(_data:sData)&lt;br&gt;&lt;/p&gt;&lt;p style=&quot;margin: 0px 0px 0px 4px;&quot;&gt;+ Searching(data:data: sData): void&lt;/p&gt;&lt;p style=&quot;margin: 0px 0px 0px 4px;&quot;&gt;+chooseType(type: String)&lt;/p&gt;&lt;p style=&quot;margin: 0px 0px 0px 4px;&quot;&gt;+IseVinnumberToFindEquivalents(): void&lt;/p&gt;&lt;p style=&quot;margin: 0px 0px 0px 4px;&quot;&gt;+&amp;lt;&amp;lt;virtual, const&amp;gt;&amp;gt; Order():void&lt;/p&gt;&lt;p style=&quot;margin: 0px 0px 0px 4px;&quot;&gt;+&amp;lt;&amp;lt;virtual, const&amp;gt;&amp;gt; View():void&lt;br&gt;&lt;/p&gt;&lt;p style=&quot;margin: 0px 0px 0px 4px;&quot;&gt;&lt;br&gt;&lt;/p&gt;" style="verticalAlign=top;align=left;overflow=fill;html=1;whiteSpace=wrap;" vertex="1" parent="1">
          <mxGeometry x="1380" y="830" width="230" height="170" as="geometry" />
        </mxCell>
        <mxCell id="kLguh2nxEDngK2DsZuyt-77" value="&lt;p style=&quot;margin:0px;margin-top:4px;text-align:center;&quot;&gt;&lt;i&gt;Автозапчасти&lt;/i&gt;&lt;/p&gt;&lt;hr size=&quot;1&quot; style=&quot;border-style:solid;&quot;&gt;&lt;p style=&quot;margin: 0px 0px 0px 4px;&quot;&gt;+ type:string&lt;br&gt;&lt;/p&gt;&lt;p style=&quot;margin: 0px 0px 0px 4px;&quot;&gt;+ m_Inf: sData&lt;/p&gt;&lt;hr size=&quot;1&quot; style=&quot;border-style:solid;&quot;&gt;&lt;p style=&quot;margin: 0px 0px 0px 4px;&quot;&gt;+ Autoparts(_data:sData)&lt;br&gt;&lt;/p&gt;&lt;p style=&quot;margin: 0px 0px 0px 4px;&quot;&gt;+ Searching(data:data: sData): void&lt;/p&gt;&lt;p style=&quot;margin: 0px 0px 0px 4px;&quot;&gt;+chooseType(type: String)&lt;/p&gt;&lt;p style=&quot;margin: 0px 0px 0px 4px;&quot;&gt;+IseVinnumberToFindEquivalents(): void&lt;/p&gt;&lt;p style=&quot;margin: 0px 0px 0px 4px;&quot;&gt;+&amp;lt;&amp;lt;virtual, const&amp;gt;&amp;gt; Order():void&lt;/p&gt;&lt;p style=&quot;margin: 0px 0px 0px 4px;&quot;&gt;+&amp;lt;&amp;lt;virtual, const&amp;gt;&amp;gt; View():void&lt;br&gt;&lt;/p&gt;&lt;p style=&quot;margin: 0px 0px 0px 4px;&quot;&gt;&lt;br&gt;&lt;/p&gt;" style="verticalAlign=top;align=left;overflow=fill;html=1;whiteSpace=wrap;" vertex="1" parent="1">
          <mxGeometry x="1110" y="830" width="230" height="160" as="geometry" />
        </mxCell>
        <mxCell id="kLguh2nxEDngK2DsZuyt-78" value="Extends" style="endArrow=block;endSize=16;endFill=0;html=1;rounded=0;exitX=0.5;exitY=0;exitDx=0;exitDy=0;entryX=0;entryY=0.5;entryDx=0;entryDy=0;" edge="1" parent="1" source="kLguh2nxEDngK2DsZuyt-75" target="kLguh2nxEDngK2DsZuyt-52">
          <mxGeometry width="160" relative="1" as="geometry">
            <mxPoint x="840" y="730" as="sourcePoint" />
            <mxPoint x="1000" y="730" as="targetPoint" />
          </mxGeometry>
        </mxCell>
        <mxCell id="kLguh2nxEDngK2DsZuyt-79" value="Extends" style="endArrow=block;endSize=16;endFill=0;html=1;rounded=0;exitX=0.5;exitY=0;exitDx=0;exitDy=0;entryX=1;entryY=0.5;entryDx=0;entryDy=0;" edge="1" parent="1" source="kLguh2nxEDngK2DsZuyt-76" target="kLguh2nxEDngK2DsZuyt-52">
          <mxGeometry width="160" relative="1" as="geometry">
            <mxPoint x="840" y="730" as="sourcePoint" />
            <mxPoint x="1000" y="730" as="targetPoint" />
          </mxGeometry>
        </mxCell>
        <mxCell id="kLguh2nxEDngK2DsZuyt-80" value="Extends" style="endArrow=block;endSize=16;endFill=0;html=1;rounded=0;exitX=0.5;exitY=0;exitDx=0;exitDy=0;entryX=0.529;entryY=1.137;entryDx=0;entryDy=0;entryPerimeter=0;" edge="1" parent="1" source="kLguh2nxEDngK2DsZuyt-77" target="kLguh2nxEDngK2DsZuyt-52">
          <mxGeometry width="160" relative="1" as="geometry">
            <mxPoint x="840" y="730" as="sourcePoint" />
            <mxPoint x="1000" y="730" as="targetPoint" />
          </mxGeometry>
        </mxCell>
        <mxCell id="kLguh2nxEDngK2DsZuyt-81" value="1" style="endArrow=block;endFill=1;html=1;edgeStyle=orthogonalEdgeStyle;align=left;verticalAlign=top;rounded=0;entryX=0.5;entryY=0;entryDx=0;entryDy=0;" edge="1" parent="1" target="kLguh2nxEDngK2DsZuyt-48">
          <mxGeometry x="0.9055" relative="1" as="geometry">
            <mxPoint x="890" y="450" as="sourcePoint" />
            <mxPoint x="1000" y="630" as="targetPoint" />
            <mxPoint as="offset" />
          </mxGeometry>
        </mxCell>
        <mxCell id="kLguh2nxEDngK2DsZuyt-82" value="*" style="edgeLabel;resizable=0;html=1;align=left;verticalAlign=bottom;" connectable="0" vertex="1" parent="kLguh2nxEDngK2DsZuyt-81">
          <mxGeometry x="-1" relative="1" as="geometry" />
        </mxCell>
        <mxCell id="kLguh2nxEDngK2DsZuyt-83" value="&lt;p style=&quot;margin:0px;margin-top:4px;text-align:center;&quot;&gt;&lt;i&gt;sData&lt;/i&gt;&lt;/p&gt;&lt;hr size=&quot;1&quot; style=&quot;border-style:solid;&quot;&gt;&lt;p style=&quot;margin:0px;margin-left:4px;&quot;&gt;+ itemID: int&lt;/p&gt;&lt;p style=&quot;margin:0px;margin-left:4px;&quot;&gt;+ name: string&lt;/p&gt;&lt;p style=&quot;margin:0px;margin-left:4px;&quot;&gt;+ amount&lt;span style=&quot;background-color: initial;&quot;&gt;:int&lt;/span&gt;&lt;/p&gt;&lt;p style=&quot;margin:0px;margin-left:4px;&quot;&gt;+cost:int&lt;/p&gt;&lt;p style=&quot;margin:0px;margin-left:4px;&quot;&gt;+article:string&lt;/p&gt;&lt;p style=&quot;margin:0px;margin-left:4px;&quot;&gt;+productGroup&lt;span style=&quot;background-color: initial;&quot;&gt;:int&lt;/span&gt;&lt;/p&gt;&lt;hr size=&quot;1&quot; style=&quot;border-style:solid;&quot;&gt;&lt;p style=&quot;margin:0px;margin-left:4px;&quot;&gt;+ sData()&lt;/p&gt;" style="verticalAlign=top;align=left;overflow=fill;html=1;whiteSpace=wrap;" vertex="1" parent="1">
          <mxGeometry x="1400" y="80" width="190" height="160" as="geometry" />
        </mxCell>
      </root>
    </mxGraphModel>
  </diagram>
</mxfile>
